# xmcd
#
# Track frame offsets:
# 182
# 21562
# 40982
# 60177
# 75600
# 96762
# 117935
# 136230
# 147660
# 160465
# 173290
# 192947
# 209272
# 229832
# 246022
# 264725
# 283560
# 304392
#
# Disc length: 4350 seconds
#
#
# Revision: 2
# Processed by: cddbd v1.5.1PL0 Copyright (c) Steve Scherf et al.
# Submitted via: FreeRIP 2.91 
#
DISCID=0010fc12
DTITLE=Various Artist - Soul Moods
DYEAR=1900
DGENRE=Soul
TTITLE0=Whitney Houston - One Moment in Time
TTITLE1=Jon Secada - Just Another Day
TTITLE2=Lisa Stansfield - Change
TTITLE3=West End - The Love I Lost
TTITLE4=Kenny Thomas - Thinking About Your Love
TTITLE5=Luther Vandross - Give me the Reason
TTITLE6=Marvin Gaye - Sexual Healing
TTITLE7=Erma Franklin - (Take a Little) Piece of my Heart
TTITLE8=Al Green - Tired of Being Alone
TTITLE9=Percy Sledge - When a Man Loves a Woman
TTITLE10=Brenda Russell - Piano in the Dark
TTITLE11=Tina Turner - Let's Stay Together
TTITLE12=Rufus and Chaka Khan - Ain't Nobody
TTITLE13=Nina Simone - My Baby Just Cares for Me
TTITLE14=Freddy Jackson - Me and Mrs Jones
TTITLE15=Paul Young - Wherever I Lay my Hat
TTITLE16=Curtis Stigers - You're All That Matters to me
TTITLE17=Robert Palmer - Mercy Mercy Me
EXTD=
EXTT0=
EXTT1=
EXTT2=
EXTT3=
EXTT4=
EXTT5=
EXTT6=
EXTT7=
EXTT8=
EXTT9=
EXTT10=
EXTT11=
EXTT12=
EXTT13=
EXTT14=
EXTT15=
EXTT16=
EXTT17=
PLAYORDER=
